<?xml version="1.0" encoding="UTF-8" standalone="no"?>
<svg width="64" height="64" viewBox="0 0 2 2" version="1.1" id="svg2" xmlns="http://www.w3.org/2000/svg" xmlns:svg="http://www.w3.org/2000/svg">
   <g stroke="none" stroke-width="1" fill="none" fill-rule="evenodd" id="g2">
      <g fill="currentColor" fill-rule="nonzero" id="g1" transform="matrix(0.10666666,0,0,0.10666666,-0.31999998,-0.31999998)">
         <path d="M 18.25,3 C 19.768783,3 21,4.2312169 21,5.75 v 12.5 C 21,19.768783 19.768783,21 18.25,21 H 5.75 C 4.2312169,21 3,19.768783 3,18.25 V 5.75 C 3,4.2312169 4.2312169,3 5.75,3 Z m 0,1.5 H 5.75 C 5.0596441,4.5 4.5,5.0596441 4.5,5.75 v 12.5 c 0,0.690356 0.5596441,1.25 1.25,1.25 h 12.5 c 0.690356,0 1.25,-0.559644 1.25,-1.25 V 5.75 C 19.5,5.0596441 18.940356,4.5 18.25,4.5 Z M 10,14.43934 16.46967,7.9696699 c 0.292893,-0.2928932 0.767767,-0.2928932 1.06066,0 0.266267,0.2662666 0.290473,0.6829303 0.07262,0.9765418 l -0.07262,0.084118 -7,7.0000003 c -0.266266,0.266267 -0.6829302,0.290473 -0.9765416,0.07262 l -0.084119,-0.07262 -3,-3 c -0.2928932,-0.292893 -0.2928932,-0.767767 0,-1.06066 0.2662666,-0.266267 0.6829303,-0.290473 0.9765418,-0.07262 L 7.5303301,11.96967 10,14.43934 16.46967,7.9696699 Z" id="path1" />
      </g>
   </g>
</svg>