<?xml version="1.0" encoding="UTF-8" standalone="no"?>
<svg width="64" height="64" viewBox="0 0 2 2" xmlns="http://www.w3.org/2000/svg" xmlns:svg="http://www.w3.org/2000/svg">
    <g stroke="none" stroke-width="1" fill="none" fill-rule="evenodd" id="g2" transform="matrix(0.10666667,0,0,0.10666667,-0.32,-0.32)">
        <g fill="currentColor" fill-rule="nonzero" id="g1">
            <path d="m 5.75,3 h 12.5 C 19.768783,3 21,4.2312169 21,5.75 v 12.5 C 21,19.768783 19.768783,21 18.25,21 H 5.75 C 4.2312169,21 3,19.768783 3,18.25 V 5.75 C 3,4.2312169 4.2312169,3 5.75,3 Z m 0,1.5 C 5.0596441,4.5 4.5,5.0596441 4.5,5.75 v 12.5 c 0,0.690356 0.5596441,1.25 1.25,1.25 h 12.5 c 0.690356,0 1.25,-0.559644 1.25,-1.25 V 5.75 C 19.5,5.0596441 18.940356,4.5 18.25,4.5 Z" id="path1" />
        </g>
    </g>
</svg>